# xmcd
#
# Track frame offsets:
#	150
#	13960
#	27746
#	37540
#	47364
#	58337
#	70322
#	84363
#	94738
#	108014
#	121918
#	136191
#	144676
#
# Disc length: 2127 seconds
#
# Revision: 0
# Processed by: cddbd v1.5.2PL0 Copyright (c) Steve Scherf et al.
# Submitted via: EasyCDDAExtractor 9.0.0.1
#
DISCID=a9084d0d
DTITLE=Walda Gang
DYEAR=2007
DGENRE=POP
TTITLE0=Eldorado
TTITLE1=Hustonske sify
TTITLE2=O Zuzano
TTITLE3=Hoja hou
TTITLE4=Drnova chajda
TTITLE5=Rocky Top
TTITLE6=7 dostavniku
TTITLE7=Ved me dal
TTITLE8=Jo tresne zraly
TTITLE9=Slavici z Madridu
TTITLE10=Orchestrion
TTITLE11=Pisnicka pro Zuzanu
TTITLE12=Dlouhou cestou - Ruska
EXTD=
EXTT0=
EXTT1=
EXTT2=
EXTT3=
EXTT4=
EXTT5=
EXTT6=
EXTT7=
EXTT8=
EXTT9=
EXTT10=
EXTT11=
EXTT12=
PLAYORDER=
